solid Created by Gmsh
facet normal 0 -1 0
  outer loop
    vertex -0.00491026 0.001 -0.00229201
    vertex 0.000113005 0.001 0.00138382
    vertex -0.00566402 0.001 0.00257408
  endloop
endfacet
facet normal 0 -1 0
  outer loop
    vertex 0.00573538 0.001 0.00271814
    vertex 0.000113005 0.001 0.00138382
    vertex 0.00495763 0.001 -0.00227985
  endloop
endfacet
facet normal 0 -1 0
  outer loop
    vertex 0.000113005 0.001 0.00138382
    vertex -0.00491026 0.001 -0.00229201
    vertex 7.17268e-05 0.001 -0.00311491
  endloop
endfacet
facet normal -0 -1 0
  outer loop
    vertex 0.00495763 0.001 -0.00227985
    vertex 0.000113005 0.001 0.00138382
    vertex 7.17268e-05 0.001 -0.00311491
  endloop
endfacet
facet normal 0 -1 0
  outer loop
    vertex 0.000113005 0.001 0.00138382
    vertex -0.00249333 0.001 0.00577915
    vertex -0.00566402 0.001 0.00257408
  endloop
endfacet
facet normal -0 -1 0
  outer loop
    vertex 0.00573538 0.001 0.00271814
    vertex 0.00243134 0.001 0.00604158
    vertex 0.000113005 0.001 0.00138382
  endloop
endfacet
facet normal 0 -1 0
  outer loop
    vertex 0.00248738 0.001 -0.00616102
    vertex 0.00495763 0.001 -0.00227985
    vertex 7.17268e-05 0.001 -0.00311491
  endloop
endfacet
facet normal 0 -1 0
  outer loop
    vertex -2.5412e-14 0.001 -0.01
    vertex 0.005 0.001 -0.01
    vertex 0.00248738 0.001 -0.00616102
  endloop
endfacet
facet normal -0 -1 0
  outer loop
    vertex 2.5412e-14 0.001 0.01
    vertex -0.005 0.001 0.01
    vertex -0.00249333 0.001 0.00577915
  endloop
endfacet
facet normal 0 -1 0
  outer loop
    vertex 0.01 0.001 -2.5412e-14
    vertex 0.01 0.001 0.005
    vertex 0.00573538 0.001 0.00271814
  endloop
endfacet
facet normal 0 -1 0
  outer loop
    vertex -0.01 0.001 2.5412e-14
    vertex -0.01 0.001 -0.005
    vertex -0.00491026 0.001 -0.00229201
  endloop
endfacet
facet normal 0 -1 0
  outer loop
    vertex -0.00491026 0.001 -0.00229201
    vertex -0.00228912 0.001 -0.00622548
    vertex 7.17268e-05 0.001 -0.00311491
  endloop
endfacet
facet normal -0 -1 0
  outer loop
    vertex 0.005 0.001 0.01
    vertex 2.5412e-14 0.001 0.01
    vertex 0.00243134 0.001 0.00604158
  endloop
endfacet
facet normal 0 -1 0
  outer loop
    vertex 0.01 0.001 -0.005
    vertex 0.01 0.001 -2.5412e-14
    vertex 0.00495763 0.001 -0.00227985
  endloop
endfacet
facet normal 0 -1 0
  outer loop
    vertex -0.01 0.001 0.005
    vertex -0.01 0.001 2.5412e-14
    vertex -0.00566402 0.001 0.00257408
  endloop
endfacet
facet normal 0 -1 0
  outer loop
    vertex -0.005 0.001 -0.01
    vertex -2.5412e-14 0.001 -0.01
    vertex -0.00228912 0.001 -0.00622548
  endloop
endfacet
facet normal 0 -1 0
  outer loop
    vertex 0.00243134 0.001 0.00604158
    vertex -0.00249333 0.001 0.00577915
    vertex 0.000113005 0.001 0.00138382
  endloop
endfacet
facet normal 0 -1 -0
  outer loop
    vertex 2.5412e-14 0.001 0.01
    vertex -0.00249333 0.001 0.00577915
    vertex 0.00243134 0.001 0.00604158
  endloop
endfacet
facet normal -0 -1 0
  outer loop
    vertex 0.01 0.001 -2.5412e-14
    vertex 0.00573538 0.001 0.00271814
    vertex 0.00495763 0.001 -0.00227985
  endloop
endfacet
facet normal 0 -1 0
  outer loop
    vertex -2.5412e-14 0.001 -0.01
    vertex 0.00248738 0.001 -0.00616102
    vertex -0.00228912 0.001 -0.00622548
  endloop
endfacet
facet normal 0 -1 0
  outer loop
    vertex -0.01 0.001 2.5412e-14
    vertex -0.00491026 0.001 -0.00229201
    vertex -0.00566402 0.001 0.00257408
  endloop
endfacet
facet normal -0 -1 0
  outer loop
    vertex 0.01 0.001 0.01
    vertex 0.005 0.001 0.01
    vertex 0.00633975 0.001 0.00633975
  endloop
endfacet
facet normal 0 -1 0
  outer loop
    vertex 0.01 0.001 -0.01
    vertex 0.01 0.001 -0.005
    vertex 0.00633975 0.001 -0.00633975
  endloop
endfacet
facet normal 0 -1 0
  outer loop
    vertex -0.01 0.001 0.01
    vertex -0.01 0.001 0.005
    vertex -0.00633975 0.001 0.00633975
  endloop
endfacet
facet normal 0 -1 0
  outer loop
    vertex -0.01 0.001 -0.01
    vertex -0.005 0.001 -0.01
    vertex -0.00643988 0.001 -0.0067035
  endloop
endfacet
facet normal 0 -1 0
  outer loop
    vertex 0.005 0.001 -0.01
    vertex 0.01 0.001 -0.01
    vertex 0.00633975 0.001 -0.00633975
  endloop
endfacet
facet normal -0 -1 0
  outer loop
    vertex -0.005 0.001 0.01
    vertex -0.01 0.001 0.01
    vertex -0.00633975 0.001 0.00633975
  endloop
endfacet
facet normal 0 -1 0
  outer loop
    vertex 0.01 0.001 0.005
    vertex 0.01 0.001 0.01
    vertex 0.00633975 0.001 0.00633975
  endloop
endfacet
facet normal 0 -1 0
  outer loop
    vertex -0.01 0.001 -0.005
    vertex -0.01 0.001 -0.01
    vertex -0.00643988 0.001 -0.0067035
  endloop
endfacet
facet normal 0 -1 -0
  outer loop
    vertex 0.005 0.001 0.01
    vertex 0.00243134 0.001 0.00604158
    vertex 0.00633975 0.001 0.00633975
  endloop
endfacet
facet normal -0 -1 0
  outer loop
    vertex 0.01 0.001 -0.005
    vertex 0.00495763 0.001 -0.00227985
    vertex 0.00633975 0.001 -0.00633975
  endloop
endfacet
facet normal 0 -1 0
  outer loop
    vertex -0.01 0.001 0.005
    vertex -0.00566402 0.001 0.00257408
    vertex -0.00633975 0.001 0.00633975
  endloop
endfacet
facet normal 0 -1 0
  outer loop
    vertex -0.005 0.001 -0.01
    vertex -0.00228912 0.001 -0.00622548
    vertex -0.00643988 0.001 -0.0067035
  endloop
endfacet
facet normal 0 -1 0
  outer loop
    vertex 0.00248738 0.001 -0.00616102
    vertex 0.005 0.001 -0.01
    vertex 0.00633975 0.001 -0.00633975
  endloop
endfacet
facet normal 0 -1 0
  outer loop
    vertex -0.00249333 0.001 0.00577915
    vertex -0.005 0.001 0.01
    vertex -0.00633975 0.001 0.00633975
  endloop
endfacet
facet normal 0 -1 0
  outer loop
    vertex 0.00573538 0.001 0.00271814
    vertex 0.01 0.001 0.005
    vertex 0.00633975 0.001 0.00633975
  endloop
endfacet
facet normal 0 -1 0
  outer loop
    vertex -0.00491026 0.001 -0.00229201
    vertex -0.01 0.001 -0.005
    vertex -0.00643988 0.001 -0.0067035
  endloop
endfacet
facet normal 0 -1 -0
  outer loop
    vertex 0.00495763 0.001 -0.00227985
    vertex 0.00248738 0.001 -0.00616102
    vertex 0.00633975 0.001 -0.00633975
  endloop
endfacet
facet normal 0 -1 0
  outer loop
    vertex 0.00243134 0.001 0.00604158
    vertex 0.00573538 0.001 0.00271814
    vertex 0.00633975 0.001 0.00633975
  endloop
endfacet
facet normal 0 -1 0
  outer loop
    vertex -0.00566402 0.001 0.00257408
    vertex -0.00249333 0.001 0.00577915
    vertex -0.00633975 0.001 0.00633975
  endloop
endfacet
facet normal -0 -1 0
  outer loop
    vertex -0.00228912 0.001 -0.00622548
    vertex -0.00491026 0.001 -0.00229201
    vertex -0.00643988 0.001 -0.0067035
  endloop
endfacet
facet normal 0 -1 0
  outer loop
    vertex -0.00228912 0.001 -0.00622548
    vertex 0.00248738 0.001 -0.00616102
    vertex 7.17268e-05 0.001 -0.00311491
  endloop
endfacet
endsolid Created by Gmsh
